<?xml version="1.0" encoding="UTF-8" standalone="no"?> <svg id="Layer_1" data-name="Layer 1" xmlns="http://www.w3.org/2000/svg" viewBox="0 0 128 128"><defs><style>.cls-1{fill:#2d3e50;}</style></defs><title>x</title><path class="cls-1" d="M118.84575,36.57337l-17.3278-20.65708a21.73629,21.73629,0,0,0-12.852-7.42153L62.10917,3.815A21.67531,21.67531,0,0,0,47.49458,6.38946l-23.354,13.48442a21.68087,21.68087,0,0,0-9.535,11.36692L5.38482,56.58172a21.6832,21.6832,0,0,0-.00406,14.8349l9.22489,25.34092a21.69611,21.69611,0,0,0,9.535,11.36692l23.354,13.48033a21.67934,21.67934,0,0,0,14.61459,2.58265l26.55675-4.68792a21.67449,21.67449,0,0,0,12.852-7.42153L118.84575,91.429a21.70446,21.70446,0,0,0,5.07961-13.94955V50.51475A21.68271,21.68271,0,0,0,118.84575,36.57337Zm-25.957,50.44927s-5.70793,4.639-5.70793,4.64305C77.0012,100.20515,64.5,89.92352,56.9153,82.93855c-1.02814-.94656-3.517-3.39863-5.98536-5.86705-2.47248-2.4684-4.92049-4.95719-5.86705-5.98536-6.98905-7.58472-17.27065-20.08587-8.72714-30.26549,0-.00408,4.639-5.70793,4.639-5.70793a4.94867,4.94867,0,0,1,7.56432-.48552c.17135.18361,6.89114,9.15554,7.0217,9.40033a4.946,4.946,0,0,1-.37946,5.25914l-3.6108,4.61449q.7099,1.74419,1.64017,3.50474a46.96207,46.96207,0,0,0,7.956,10.57537,36.34707,36.34707,0,0,0,9.42889,6.80953,38.482,38.482,0,0,0,3.50474,1.63609l4.61449-3.60674a4.94014,4.94014,0,0,1,5.255-.38352c.2489.13056,9.22083,6.85441,9.40035,7.02579A4.944,4.944,0,0,1,92.88874,87.02264Z"/></svg>