<?xml version="1.0" encoding="UTF-8" standalone="no"?> <svg id="Flat" xmlns="http://www.w3.org/2000/svg" viewBox="0 0 64 64"><defs><style>.cls-1{fill:#f2f2f2;}.cls-2{fill:#e6e6e6;}.cls-3{fill:#2173a9;}.cls-4{fill:#f4462d;}.cls-5{fill:#29485a;}</style></defs><polygon class="cls-1" points="55 15 55 61 9 61 9 3 43 3 55 15"/><polygon class="cls-2" points="43 3 43 15 55 15 43 3"/><path class="cls-3" d="M19,26a6,6,0,1,1,6-6A6,6,0,0,1,19,26Zm0-10a4,4,0,1,0,4,4A4,4,0,0,0,19,16Z"/><path class="cls-3" d="M19,40a6,6,0,1,1,6-6A6,6,0,0,1,19,40Zm0-10a4,4,0,1,0,4,4A4,4,0,0,0,19,30Z"/><path class="cls-3" d="M19,54a6,6,0,1,1,6-6A6,6,0,0,1,19,54Zm0-10a4,4,0,1,0,4,4A4,4,0,0,0,19,44Z"/><path class="cls-4" d="M19,22a1,1,0,0,1-.71-.29l-2-2,1.42-1.42L19,19.59l6.79-6.8,1.42,1.42-7.5,7.5A1,1,0,0,1,19,22Z"/><path class="cls-4" d="M19,50a1,1,0,0,1-.71-.29l-2-2,1.42-1.42L19,47.59l6.79-6.8,1.42,1.42-7.5,7.5A1,1,0,0,1,19,50Z"/><rect class="cls-5" x="29" y="17" width="12" height="2"/><rect class="cls-5" x="29" y="21" width="18" height="2"/><rect class="cls-5" x="29" y="31" width="12" height="2"/><rect class="cls-5" x="29" y="35" width="18" height="2"/><rect class="cls-5" x="29" y="45" width="12" height="2"/><rect class="cls-5" x="29" y="49" width="18" height="2"/><rect class="cls-5" x="14" y="6" width="17" height="2"/><rect class="cls-5" x="33" y="6" width="7" height="2"/></svg>